/* XPM */
static char *_517092683718[] = {
/* columns rows colors chars-per-pixel */
"32 32 101 2 ",
"   c gray58",
".  c #989898",
"X  c gray60",
"o  c #9A9A9A",
"O  c #9B9B9B",
"+  c gray61",
"@  c #9D9D9D",
"#  c gray62",
"$  c #9F9F9F",
"%  c #A0A0A0",
"&  c gray63",
"*  c #A2A2A2",
"=  c gray64",
"-  c #A4A4A4",
";  c #A5A5A5",
":  c gray65",
">  c #A7A7A7",
",  c gray66",
"<  c #A9A9A9",
"1  c #AAAAAA",
"2  c gray67",
"3  c #ACACAC",
"4  c gray68",
"5  c #AEAEAE",
"6  c #AFAFAF",
"7  c gray69",
"8  c #B1B1B1",
"9  c #B2B2B2",
"0  c gray70",
"q  c #B4B4B4",
"w  c gray71",
"e  c #B6B6B6",
"r  c #B7B7B7",
"t  c gray72",
"y  c #B9B9B9",
"u  c gray73",
"i  c #BBBBBB",
"p  c #BCBCBC",
"a  c gray74",
"s  c gray",
"d  c gray75",
"f  c #C0C0C0",
"g  c #C1C1C1",
"h  c gray76",
"j  c #C3C3C3",
"k  c gray77",
"l  c #C5C5C5",
"z  c #C6C6C6",
"x  c gray78",
"c  c #C8C8C8",
"v  c gray79",
"b  c #CACACA",
"n  c #CBCBCB",
"m  c gray80",
"M  c #CDCDCD",
"N  c #CECECE",
"B  c gray81",
"V  c #D0D0D0",
"C  c gray82",
"Z  c #D2D2D2",
"A  c LightGray",
"S  c gray83",
"D  c #D5D5D5",
"F  c gray84",
"G  c #D7D7D7",
"H  c #D8D8D8",
"J  c gray85",
"K  c #DADADA",
"L  c gray86",
"P  c gainsboro",
"I  c #DDDDDD",
"U  c gray87",
"Y  c #DFDFDF",
"T  c gray88",
"R  c #E1E1E1",
"E  c #E2E2E2",
"W  c gray89",
"Q  c #E4E4E4",
"!  c gray90",
"~  c #E6E6E6",
"^  c #E7E7E7",
"/  c gray91",
"(  c #E9E9E9",
")  c #EAEAEA",
"_  c gray92",
"`  c #ECECEC",
"'  c gray93",
"]  c #EEEEEE",
"[  c #EFEFEF",
"{  c gray94",
"}  c #F1F1F1",
"|  c gray95",
" . c #F3F3F3",
".. c #F4F4F4",
"X. c gray96",
"o. c #F6F6F6",
"O. c #F8F8F8",
"+. c gray98",
"@. c gray99",
"#. c white",
"$. c None",
/* pixels */
"$.$.$.$.$.$.$.$.$.$.$.$.$.$.$.$.$.$.$.$.$.$.$.$.$.$.$.$.$.$.$.$.",
"$.$.$.$.$.$.$.$.$.$.$.$.$.$./ / / ! $.$.$.$.$.$.$.$.$.$.$.$.$.$.",
"$.$.$.$.$.$.$.$.$.$.$.W H S S M M M M v Z $.$.$.$.$.$.$.$.$.$.$.",
"$.$.$.$.$.$.$.$.$.I M v l l M v v l h a q q M $.$.$.$.$.$.$.$.$.",
"$.$.$.$.$.$.$.| M a M H S v v h a l v l v u 2 h ..$.$.$.$.$.$.$.",
"$.$.$.$.$.$.| h h W Z h v Z Z S S Z v l a h v 0 a +.$.$.$.$.$.$.",
"$.$.$.$.$.| u l I Z v M ! ` ......` W S v l a h 3 q +.$.$.$.$.$.",
"$.$.$.$.| a h v h v I +.#.#...| ` ! I I Z l h 0 0 ; u ..$.$.$.$.",
"$.$.$.$.M 0 v a v ! #.+.| ` ! ! W I M M v Z l q 3 3 # a / $.$.$.",
"$.$.$.I 3 v a l ! #.../ ! / I S Z M v a h v l u q 3 0   v $.$.$.",
"$.$.$.u 3 l a S #.` W W I M h a 3 q h q a l h a 0 3 3 % ; I $.$.",
"$.$.S 2 l q h ` / H I H h u 0 0 0 3 3 ; a a a a 0 ; 2 0 X a $.$.",
"$.$.h 2 a 0 Z ! S Z S a a 0 u l v l u 2 u u q q 0 2 2 0 % 2 $.$.",
"$.$.h ; 0 q S H M H v q 3 q M h a a a a u q q q 0 2 2 0 0 ; $.$.",
"$./ h ; 2 q Z M v v q 0 3 h a a a u u q q q 0 0 0 ; q q u ; v $.",
"$.| a # 3 u M v v h 3 2 0 l u u q 0 0 q u 0 3 3 0 2 q q a 2 Z $.",
"$...h X ; 0 v h h u ; ; 3 a u 3   % 3 ; # ; 0 0 0 3 u h l q H $.",
"$.| M X % 3 l h a u 2 2 3 q q 0 0 q u 0 % 3 0 q a 0 a h l h S $.",
"$.$.S X 2 2 u h u u 0 2 3 u q 2 0 a a q 3 u u a v u l v v v $.$.",
"$.$.H % 0 0 q u q q 3 2 0 q u u u h l a 0 h l v v h Z M l l $.$.",
"$.$.H 2 a u a 0 q 0 0 2 3 u a l l Z S l a v M H h a h v 0 v $.$.",
"$.$.$.3 q u a u 3 0 3 0 3 3 0 q q M W M l Z H H q q 2 q 2 $.$.$.",
"$.$.$.h 2 v 0 l 0 2 q 0 u q q u h Z H Z v W ! q 0 ; 0 # q $.$.$.",
"$.$.$.$.; a l u Z 0 3 a a h v M Z M S H ! / q ; % 2 2 % $.$.$.$.",
"$.$.$.$.M # Z v h v u q l S S H H ! / I l 2 # # ; q # v $.$.$.$.",
"$.$.$.$.$.a % v h 0 h q 0 u h M Z v h 3 X % # 0 v 0 l $.$.$.$.$.",
"$.$.$.$.$.$.l ; q u 3 3 0 ; # % % X X % q u H ! v M $.$.$.$.$.$.",
"$.$.$.$.$.$.$.H u 2 ; 3 2 # # ; u q 0 v / | ! Z Z $.$.$.$.$.$.$.",
"$.$.$.$.$.$.$.$.$.Z q % ; q v H / | ` | ! I M $.$.$.$.$.$.$.$.$.",
"$.$.$.$.$.$.$.$.$.$.$.v u u h l v S S M M $.$.$.$.$.$.$.$.$.$.$.",
"$.$.$.$.$.$.$.$.$.$.$.$.$.$.l v M v $.$.$.$.$.$.$.$.$.$.$.$.$.$.",
"$.$.$.$.$.$.$.$.$.$.$.$.$.$.$.$.$.$.$.$.$.$.$.$.$.$.$.$.$.$.$.$."
};
