/* XPM */
static char *_517092674152[] = {
/* columns rows colors chars-per-pixel */
"16 16 64 1 ",
"  c gray60",
". c #9A9A9A",
"X c #9B9B9B",
"o c #A0A0A0",
"O c gray64",
"+ c #A5A5A5",
"@ c gray65",
"# c #A7A7A7",
"$ c #A9A9A9",
"% c #AAAAAA",
"& c gray67",
"* c #ACACAC",
"= c gray68",
"- c #AEAEAE",
"; c #AFAFAF",
": c gray69",
"> c #B1B1B1",
", c #B2B2B2",
"< c gray70",
"1 c #B4B4B4",
"2 c gray71",
"3 c #B6B6B6",
"4 c #B7B7B7",
"5 c gray72",
"6 c #B9B9B9",
"7 c gray73",
"8 c #BBBBBB",
"9 c gray74",
"0 c gray",
"q c gray75",
"w c #C0C0C0",
"e c #C1C1C1",
"r c gray76",
"t c #C3C3C3",
"y c #C5C5C5",
"u c #C6C6C6",
"i c gray78",
"p c gray79",
"a c #CACACA",
"s c #CBCBCB",
"d c gray80",
"f c #CDCDCD",
"g c #CECECE",
"h c #D0D0D0",
"j c gray82",
"k c #D2D2D2",
"l c LightGray",
"z c gray83",
"x c gray84",
"c c #D7D7D7",
"v c gray85",
"b c gainsboro",
"n c gray87",
"m c gray88",
"M c #E2E2E2",
"N c #E7E7E7",
"B c gray91",
"V c #EAEAEA",
"C c #EEEEEE",
"Z c #EFEFEF",
"A c gray96",
"S c #F6F6F6",
"D c white",
"F c None",
/* pixels */
"FFFFFFFFFFFFFFFF",
"FFFFFFvzkkaFFFFF",
"FFFFbkyrrr4rbFFF",
"FFFzyfMCBba47MFF",
"FFk4fADANvkr@,FF",
"FF4rCAby7,ry,X4F",
"Fr*kBk747*47,$oF",
"Fr@fz7*ry07,*4*F",
"FyXra$*7$$$**4rF",
"FyX70**,*,$40aaF",
"Fa*74**4rf0ffyrF",
"FF4r,*,,rzbb4o4F",
"FF07y40kbbk$X@FF",
"FFF044,47*@70fFF",
"FFFFy*$$7abMFFFF",
"FFFFFFFFFFFFFFFF"
};
